<svg xmlns="http://www.w3.org/2000/svg" viewBox="0 0 64 64" role="img" aria-label="Vision of Trading icon">
  <defs>
    <linearGradient id="bg" x1="0" y1="0" x2="1" y2="1">
      <stop offset="0%" stop-color="#071a3f"/>
      <stop offset="100%" stop-color="#103a7d"/>
    </linearGradient>
    <linearGradient id="line" x1="0" y1="0" x2="1" y2="0">
      <stop offset="0%" stop-color="#38d7ff"/>
      <stop offset="100%" stop-color="#39f1a6"/>
    </linearGradient>
  </defs>

  <rect x="2" y="2" width="60" height="60" rx="16" fill="url(#bg)"/>
  <path d="M10 42 C18 40, 26 36, 34 30 C42 24, 50 19, 56 14" fill="none" stroke="url(#line)" stroke-width="3" stroke-linecap="round"/>

  <g opacity="0.95">
    <line x1="14" y1="46" x2="14" y2="34" stroke="#96cfff" stroke-width="1.5"/>
    <rect x="12.7" y="38" width="2.6" height="6" rx="1" fill="#ff7b9a"/>

    <line x1="24" y1="41" x2="24" y2="27" stroke="#96cfff" stroke-width="1.5"/>
    <rect x="22.7" y="31" width="2.6" height="8" rx="1" fill="#4af2b0"/>

    <line x1="34" y1="36" x2="34" y2="20" stroke="#96cfff" stroke-width="1.5"/>
    <rect x="32.7" y="24" width="2.6" height="10" rx="1" fill="#4af2b0"/>

    <line x1="44" y1="30" x2="44" y2="16" stroke="#96cfff" stroke-width="1.5"/>
    <rect x="42.7" y="20" width="2.6" height="8" rx="1" fill="#ff7b9a"/>
  </g>

  <circle cx="56" cy="14" r="2.6" fill="#7cf8bc"/>
</svg>
